<svg width="55" height="45" viewBox="0 0 55 45" fill="none" xmlns="http://www.w3.org/2000/svg">
<path d="M36.7148 21.5649H46.1808C50.338 21.5649 52.4166 23.4322 52.4166 27.1955C52.4166 30.4417 50.1694 32.7399 45.6752 34.0901L49.6919 39.7781C52.6132 36.8192 54.4109 32.7399 54.4109 28.2009C54.4109 19.2092 47.2763 11.9124 38.4844 11.9124C29.6925 11.9124 22.5579 19.2092 22.5579 28.2009C22.5579 36.5894 28.7655 43.484 36.7429 44.3745L36.7148 21.5649Z" fill="#40C0D3"/>
<path d="M43.4842 34.1475V32.9696C48.1751 32.2514 50.5346 30.3842 50.5346 27.3103C50.5346 24.495 48.9897 23.0874 45.928 23.0874H38.4282V44.4894C38.4563 44.4894 38.4844 44.4894 38.4844 44.4894C42.1922 44.4894 45.5909 43.1966 48.3156 41.0133L43.4842 34.1475Z" fill="#40C0D3"/>
<path d="M8.37299 36.3308C12.9959 36.3308 16.7435 32.498 16.7435 27.77C16.7435 23.042 12.9959 19.2092 8.37299 19.2092C3.75006 19.2092 0.00244141 23.042 0.00244141 27.77C0.00244141 32.498 3.75006 36.3308 8.37299 36.3308Z" fill="#FFB75F"/>
<path d="M3.34497 19.4391C3.70177 19.4391 3.99102 19.1433 3.99102 18.7784C3.99102 18.4135 3.70177 18.1177 3.34497 18.1177C2.98816 18.1177 2.69891 18.4135 2.69891 18.7784C2.69891 19.1433 2.98816 19.4391 3.34497 19.4391Z" fill="#FFC96B"/>
<path opacity="0.9" d="M14.6649 23.9492C19.6756 23.9492 23.7376 19.7949 23.7376 14.6702C23.7376 9.54558 19.6756 5.39124 14.6649 5.39124C9.65409 5.39124 5.59207 9.54558 5.59207 14.6702C5.59207 19.7949 9.65409 23.9492 14.6649 23.9492Z" fill="#B3D446"/>
<path d="M22.1366 40.4102C29.1796 40.4102 34.889 34.571 34.889 27.3679C34.889 20.1649 29.1796 14.3257 22.1366 14.3257C15.0936 14.3257 9.38416 20.1649 9.38416 27.3679C9.38416 34.571 15.0936 40.4102 22.1366 40.4102Z" fill="#F16059" fill-opacity="0.94"/>
<path opacity="0.9" d="M27.1926 22.1969C32.9635 22.1969 37.6417 17.4124 37.6417 11.5103C37.6417 5.60826 32.9635 0.8237 27.1926 0.8237C21.4217 0.8237 16.7435 5.60826 16.7435 11.5103C16.7435 17.4124 21.4217 22.1969 27.1926 22.1969Z" fill="#FCD035"/>
<path d="M2.41802 23.3173C3.28676 23.3173 3.99101 22.5971 3.99101 21.7086C3.99101 20.8201 3.28676 20.0999 2.41802 20.0999C1.54928 20.0999 0.845032 20.8201 0.845032 21.7086C0.845032 22.5971 1.54928 23.3173 2.41802 23.3173Z" fill="#FFC96B" fill-opacity="0.85"/>
<path d="M52.9222 40.3527C53.4497 40.3527 53.8772 39.9153 53.8772 39.3759C53.8772 38.8365 53.4497 38.3992 52.9222 38.3992C52.3948 38.3992 51.9672 38.8365 51.9672 39.3759C51.9672 39.9153 52.3948 40.3527 52.9222 40.3527Z" fill="#40C0D3"/>
<path d="M38.4844 7.28739C38.8101 7.28739 39.0742 7.0173 39.0742 6.68412C39.0742 6.35094 38.8101 6.08084 38.4844 6.08084C38.1586 6.08084 37.8945 6.35094 37.8945 6.68412C37.8945 7.0173 38.1586 7.28739 38.4844 7.28739Z" fill="#F5D876"/>
<path d="M39.2147 10.3037C39.8973 10.3037 40.4506 9.73783 40.4506 9.03973C40.4506 8.34164 39.8973 7.77573 39.2147 7.77573C38.5321 7.77573 37.9788 8.34164 37.9788 9.03973C37.9788 9.73783 38.5321 10.3037 39.2147 10.3037Z" fill="#F5D876"/>
<path d="M11.4065 40.2952C12.1977 40.2952 12.8391 39.6392 12.8391 38.8301C12.8391 38.0209 12.1977 37.365 11.4065 37.365C10.6154 37.365 9.974 38.0209 9.974 38.8301C9.974 39.6392 10.6154 40.2952 11.4065 40.2952Z" fill="#F16059"/>
</svg>
