<svg width="97" height="97" viewBox="0 0 97 97" fill="none" xmlns="http://www.w3.org/2000/svg">
<mask id="mask0" mask-type="alpha" maskUnits="userSpaceOnUse" x="0" y="0" width="97" height="97">
<path d="M0.868774 0.422363H96.0441V96.4224H0.868774V0.422363Z" fill="#2C4756"/>
</mask>
<g mask="url(#mask0)">
<path d="M64.4511 46.2676L52.6581 55.2998" stroke="white" stroke-linecap="round"/>
<path d="M85.0161 53.6773L90.6171 75.1027" stroke="white"/>
<path d="M87.7953 32.1609C88.1068 33.5839 87.9747 35.0737 87.4179 36.4189C86.8612 37.764 85.9088 38.8947 84.6977 39.653C83.4869 40.4111 82.0781 40.7591 80.6703 40.6498C79.2626 40.5406 77.9242 39.9793 76.8445 39.0434C75.7647 38.1073 74.9977 36.8431 74.6548 35.4281C74.3118 34.013 74.4107 32.5207 74.9376 31.1628C75.4645 29.805 76.3917 28.6522 77.5859 27.8657C78.7799 27.0794 80.1808 26.6985 81.5908 26.7748" stroke="#F16059" stroke-linecap="round" stroke-linejoin="round"/>
<path d="M75.8305 46.6475C72.8436 45.3423 70.4016 43.0418 68.9207 40.138C67.4397 37.2343 67.0115 33.9068 67.7089 30.7227C68.4062 27.5385 70.1861 24.6947 72.7452 22.6757C75.3042 20.6567 78.4842 19.5875 81.7432 19.6503C85.0022 19.7131 88.1387 20.9039 90.6181 23.02C93.0975 25.136 94.7666 28.0463 95.3408 31.2549C95.915 34.4635 95.3589 37.772 93.7673 40.6166C92.1756 43.4612 89.6469 45.666 86.6119 46.8551" stroke="#3CC1D4" stroke-linecap="round" stroke-linejoin="round"/>
<circle cx="81.4719" cy="33.7369" r="20.7521" transform="rotate(94.2646 81.4719 33.7369)" stroke="#FCD035" stroke-linecap="round" stroke-linejoin="round"/>
<circle cx="100.065" cy="99.0194" r="25.6347" transform="rotate(94.2646 100.065 99.0194)" stroke="white"/>
<circle cx="100.065" cy="99.0194" r="19.4672" transform="rotate(94.2646 100.065 99.0194)" stroke="#F16059"/>
<circle cx="13.0469" cy="53.0006" r="5.22475" transform="rotate(94.2646 13.0469 53.0006)" stroke="white"/>
<circle cx="13.047" cy="53.0006" r="10.4455" transform="rotate(94.2646 13.047 53.0006)" stroke="#FFB75F"/>
<circle cx="32.6414" cy="72.5951" r="10.4455" transform="rotate(94.2646 32.6414 72.5951)" stroke="#A2CE4B"/>
<path d="M15.9124 56.866L21.9124 62.8915" stroke="white"/>
<path d="M45.9912 77.7651L76.0662 89.4923" stroke="white"/>
<path d="M34.3458 86.6115C32.4963 86.8336 30.6211 86.6893 28.8273 86.1868C27.0335 85.6843 25.3563 84.8333 23.8914 83.6826C22.4265 82.5319 21.2026 81.1039 20.2896 79.4802C19.3765 77.8564 18.7922 76.0688 18.5701 74.2192C18.3479 72.3697 18.4922 70.4945 18.9948 68.7008C19.4973 66.907 20.3482 65.2298 21.4989 63.7649C22.6497 62.2999 24.0777 61.076 25.7014 60.163C27.3251 59.25 29.1128 58.6657 30.9623 58.4435C32.8119 58.2214 34.687 58.3657 36.4808 58.8682C38.2746 59.3707 39.9518 60.2217 41.4167 61.3724C42.8816 62.5231 44.1055 63.9511 45.0186 65.5748C45.9316 67.1986 46.5159 68.9862 46.738 70.8358C46.9602 72.6853 46.8159 74.5605 46.3134 76.3543C45.8108 78.148 44.9599 79.8252 43.8092 81.2902C42.6584 82.7551 41.2305 83.979 39.6067 84.892C37.983 85.805 36.1953 86.3893 34.3458 86.6115L34.3458 86.6115Z" stroke="white"/>
<circle cx="50.196" cy="57.3854" r="1.32954" transform="rotate(118.56 50.196 57.3854)" fill="white"/>
<circle cx="46.2196" cy="60.5191" r="1.32954" transform="rotate(118.56 46.2196 60.5191)" fill="white"/>
</g>
</svg>
